PathFileType	4	(X/Y/Z)	S01_0010_Gait_markers.trc
DataRate	CameraRate	NumFrames	NumMarkers	Units	OrigDataRate	OrigDataStartFrame	OrigNumFrames
250.000000	250.000000	4	54	mm	250.000000	177	354
Frame#	Time	HEAD_ANT			R_HEAD			L_HEAD			C7			R_BACK			L_BACK			STERNUM			R_ACROMION			R_HUM_PROX			R_HUM_ANT			R_HUM_POST			R_ELBOW_LAT			R_ELBOW_MED			R_FOREARM			R_WIRST_LAT			R_WRITS_MED			R_HAND			L_ACROMION			L_HUM_PROX			L_HUM_ANT			L_HUM_POST			L_ELBOW_LAT			L_ELBOW_MED			L_FOREARM			L_WRIST_LAT			L_WIRST_MED			L_HAND			R_ILIAC			SACRUM			L_ILIAC			R_GTROCH			R_THIGH__1			R_THIGH_2			R_THIGH_3			R_THIGH_4			R_SHANK_1			R_SHANK_2			R_SHANK_3			R_SHANK_4			R_HEEL			R_FOOT_LAT			R_FOOT_MED			L_GTROCH			L_THIGH_1			L_THIGH_2			L_THIGH_3			L_THIGH_4			L_SHANK_1			L_SHANK_2			L_SHANK_3			L_SHANK_4			L_HEEL			L_FOOT_LAT			L_FOOT_MED			
		X1	Y1	Z1	X2	Y2	Z2	X3	Y3	Z3	X4	Y4	Z4	X5	Y5	Z5	X6	Y6	Z6	X7	Y7	Z7	X8	Y8	Z8	X9	Y9	Z9	X10	Y10	Z10	X11	Y11	Z11	X12	Y12	Z12	X13	Y13	Z13	X14	Y14	Z14	X15	Y15	Z15	X16	Y16	Z16	X17	Y17	Z17	X18	Y18	Z18	X19	Y19	Z19	X20	Y20	Z20	X21	Y21	Z21	X22	Y22	Z22	X23	Y23	Z23	X24	Y24	Z24	X25	Y25	Z25	X26	Y26	Z26	X27	Y27	Z27	X28	Y28	Z28	X29	Y29	Z29	X30	Y30	Z30	X31	Y31	Z31	X32	Y32	Z32	X33	Y33	Z33	X34	Y34	Z34	X35	Y35	Z35	X36	Y36	Z36	X37	Y37	Z37	X38	Y38	Z38	X39	Y39	Z39	X40	Y40	Z40	X41	Y41	Z41	X42	Y42	Z42	X43	Y43	Z43	X44	Y44	Z44	X45	Y45	Z45	X46	Y46	Z46	X47	Y47	Z47	X48	Y48	Z48	X49	Y49	Z49	X50	Y50	Z50	X51	Y51	Z51	X52	Y52	Z52	X53	Y53	Z53	X54	Y54	Z54	

178	0.708	1112.44482421875	1710.85791015625	-326.202484130859	1055.45361328125	1662.078979492188	-245.6894836425778	1051.496826171875	1660.78564453125	-393.7171630859372	917.6807250976562	1493.689208984375	-317.0367736816403	842.7899169921875	1300.312744140625	-242.3899841308591	840.1049194335938	1299.24462890625	-379.1145935058591	1094.832641601562	1327.631103515625	-317.3634033203122	1000.395263671875	1446.650512695312	-144.8323974609372	964.9606323242188	1289.670166015625	-50.38291168212862	1025.5400390625	1203.346923828125	-48.40837478637668	904.0109252929688	1207.016235351562	-34.00616836547825	952.8118286132812	1099.200805664062	-27.5590209960935	921.4154663085938	1094.209716796875	-104.0332946777341	1069.568359375	923.8422241210938	-42.47351455688456	1109.370361328125	864.67041015625	-86.19149780273418	1048.410278320312	832.7262573242188	-43.31996536254864	1128.535034179688	780.4959716796875	-32.4211120605467	993.9739990234375	1439.6318359375	-485.1432189941403	951.16943359375	1273.47509765625	-573.543029785156	1006.48095703125	1188.41015625	-581.395080566406	882.8975830078125	1200.507202148438	-590.5275878906248	936.3218383789062	1090.545654296875	-602.592590332031	884.240478515625	1091.58154296875	-542.5245361328123	1022.650817871094	906.1499023437501	-592.4266357421873	1052.567260742188	844.6047363281251	-541.742736816406	1000.612731933594	825.5287475585939	-601.6231689453123	1068.41796875	758.2974853515626	-584.0024414062499	986.4940185546875	1044.081909179688	-130.2823486328123	859.3526000976562	1018.625915527344	-305.1994934082029	987.4862060546875	1040.360717773438	-475.8669128417966	913.2152099609375	903.7653198242188	-117.6860122680662	879.3749389648438	634.5296020507812	-137.6241912841795	937.3612060546875	635.6395263671875	-128.6538085937499	917.339111328125	533.7559204101562	-157.4267730712889	856.8174438476562	556.9642333984375	-155.8231811523436	717.1942749023438	391.5281982421876	-150.6559295654296	744.2853393554688	339.0635070800782	-162.1442718505859	684.6641235351562	279.3424377441407	-179.056900024414	641.839111328125	326.7524719238282	-170.9986267089843	484.180908203125	215.7099761962891	-250.842544555664	528.2503662109375	46.67523193359379	-195.9089660644531	574.9634399414062	35.49624633789069	-291.7718811035156	972.1300048828125	934.2981567382814	-480.8659057617185	1157.009643554688	686.9420166015626	-448.0101623535155	1103.966796875	683.9772949218751	-475.1659851074217	1123.615112304688	582.8819580078126	-442.1838073730468	1179.096069335938	611.3175048828126	-420.3045654296874	1203.318237304688	331.8339233398439	-418.4190979003906	1150.408081054688	304.2092285156251	-429.9292907714843	1155.119995117188	218.651840209961	-411.8376770019531	1215.37744140625	232.4062957763673	-394.2767028808593	1122.962280273438	39.28048706054695	-339.1959838867188	1300.847778320312	22.7226161956788	-403.9385681152344	1334.404052734375	28.31992530822761	-297.9420471191406	
179	0.712	1118.486206054688	1711.424438476562	-327.0178222656246	1061.669799804688	1662.762329101562	-246.5006713867184	1057.5380859375	1661.190063476562	-394.5027160644528	923.532470703125	1494.056396484375	-317.7287597656247	849.1510620117188	1300.868774414062	-242.5736541748044	846.4691162109375	1299.630004882812	-379.828918457031	1101.157348632812	1328.361572265625	-317.978576660156	1006.525207519531	1447.475341796875	-145.4700317382809	970.8212890625	1290.6220703125	-50.73880004882784	1031.338745117188	1204.1748046875	-48.73207855224582	909.7587890625	1208.082763671875	-34.85771942138645	958.1495971679688	1100.1865234375	-28.04691696166968	928.1820678710938	1095.37841796875	-105.6755142211912	1074.28125	924.2003173828125	-42.48440170288065	1113.864379882812	864.6029663085938	-85.87834167480449	1052.545532226562	833.2945556640625	-43.11596298217755	1132.346435546875	780.3572387695312	-31.79420471191389	1000.254089355469	1440.354614257812	-485.6327514648434	958.0256958007812	1273.834594726563	-574.0288085937498	1013.376281738281	1188.814575195313	-581.4633178710935	889.7759399414062	1200.772094726563	-591.0123901367185	943.3367919921875	1090.773071289063	-602.6970214843748	891.037109375	1092.029052734375	-542.759582519531	1029.600952148438	906.5971069335939	-592.4591674804685	1059.69482421875	844.9399414062501	-542.401672363281	1007.694519042969	825.8820190429689	-601.4844970703123	1075.354370117188	758.7553710937501	-583.9515380859374	994.1700439453125	1044.296630859375	-131.1124114990232	865.7719116210938	1018.956481933594	-305.0270385742185	993.6785888671875	1041.732543945312	-475.9459533691404	920.621826171875	903.197265625	-117.7589569091795	888.5614013671875	633.7789916992188	-137.9367065429686	946.4932250976562	635.446533203125	-127.7962112426756	927.2587890625	533.0834350585938	-156.996612548828	868.322509765625	557.4560546875	-153.2117156982421	727.029052734375	392.1106872558594	-150.0859985351562	753.3703002929688	339.1663818359376	-161.112091064453	693.1267700195312	279.8813476562501	-178.8850555419921	650.8801879882812	328.1445922851563	-170.1737213134765	492.4486999511719	219.9888916015626	-249.1872558593749	532.2391357421875	49.55994033813481	-195.5471343994141	577.5731811523438	37.2169265747071	-291.595703125	978.1689453125	935.2044067382814	-481.1894836425779	1163.131591796875	687.1283569335939	-446.9673461914061	1110.308959960938	684.5332641601564	-473.7598571777342	1129.542114257812	583.6267089843751	-442.3608093261718	1185.053344726562	611.3356933593751	-420.3807373046874	1207.00634765625	331.6020507812501	-418.6625976562499	1153.804809570312	304.426971435547	-430.2058715820312	1157.544189453125	218.9232025146485	-411.7273864746093	1218.070678710938	232.0413970947266	-394.1292114257812	1123.05810546875	39.34381866455086	-339.2473754882812	1300.964477539062	22.63298797607431	-403.969482421875	1334.509399414062	27.95959854125983	-297.6091003417969	
180	0.716	1124.519165039062	1711.928833007812	-327.8255004882809	1067.648559570312	1663.551635742188	-247.328948974609	1063.560302734375	1661.610473632812	-395.1801452636715	929.4414672851562	1494.3818359375	-318.3805847167965	855.3666381835938	1301.356567382812	-242.7303161621091	852.7081298828125	1300.014770507812	-380.5087585449216	1107.4697265625	1329.078002929688	-318.5187072753903	1012.69189453125	1448.31103515625	-146.2762145996091	976.7805786132812	1291.478149414062	-51.23225784301729	1037.0673828125	1204.985473632812	-48.81651687622043	915.5165405273438	1209.09912109375	-35.6983566284177	963.6563720703125	1101.176879882812	-28.62697982788061	934.2257080078125	1096.26123046875	-106.2068099975584	1078.894409179688	924.544921875	-42.3351707458494	1118.351196289062	864.6804809570312	-85.50489044189433	1056.676635742188	833.69775390625	-42.86096191406232	1136.156005859375	780.4706420898438	-31.17792320251447	1006.526672363281	1440.835327148438	-486.2787475585934	964.7815551757812	1274.169921875	-574.5394897460935	1020.22705078125	1189.07763671875	-581.5192260742185	896.6146850585938	1201.146118164063	-591.3729248046873	950.1070556640625	1091.437255859375	-602.9859619140623	894.6198120117188	1092.59033203125	-542.408264160156	1036.649658203125	907.0047607421876	-592.512023925781	1066.758056640625	845.6783447265626	-542.3635253906248	1014.752502441406	826.5173339843751	-601.6159667968748	1082.382934570312	759.1040039062501	-583.8653564453124	1001.790771484375	1044.589111328125	-131.8815002441404	872.1234741210938	1019.326049804688	-304.7770385742185	999.7921752929688	1043.122192382812	-475.9508056640623	927.9110717773438	902.6979370117188	-117.8621215820311	897.7626342773438	632.91064453125	-137.9483032226561	955.6177978515625	635.05029296875	-127.7676467895506	937.2678833007812	532.6019897460938	-156.6705169677733	878.2029418945312	556.0337524414062	-153.1209259033202	736.9232788085938	392.4443054199219	-149.6719970703124	762.672119140625	339.3775329589844	-160.5836486816405	701.693603515625	280.7345581054688	-178.2570800781249	659.9589233398438	329.3190917968751	-169.6480102539062	500.9279174804688	224.1182708740235	-248.1264038085937	536.3004760742188	52.62883758544926	-195.1602325439453	580.351806640625	38.8585281372071	-291.0289916992188	984.0509033203125	936.2540893554689	-481.6716003417966	1169.02734375	687.3903198242189	-447.2598266601561	1116.568481445312	685.0011596679689	-474.0817871093748	1135.336181640625	583.8708496093751	-442.5428466796874	1191.021362304688	611.4456176757814	-420.7737426757811	1210.643920898438	331.4882812500001	-418.4418029785156	1157.216430664062	304.8755798339845	-430.6199340820312	1160.2119140625	219.110076904297	-411.8750915527343	1220.385498046875	231.7395782470704	-394.0830688476562	1123.167236328125	39.49095153808602	-339.3119201660156	1301.061401367188	22.47147941589364	-404.1241149902344	1334.644165039062	27.63751411437995	-297.3887023925781	
181	0.72	1130.545166015625	1712.511352539062	-328.606048583984	1073.57568359375	1664.1767578125	-247.9506835937496	1069.401123046875	1662.033569335938	-395.9142150878903	935.2843017578125	1494.646362304688	-319.1336975097653	861.5157470703125	1301.984375	-243.0437011718747	859.028076171875	1300.457275390625	-381.0878906249997	1113.698974609375	1329.941162109375	-318.8947143554685	1018.819091796875	1449.205810546875	-146.7612457275387	982.7454223632812	1292.458740234375	-51.43362808227511	1042.894897460938	1205.747436523438	-49.14678955078098	921.3209838867188	1210.012084960938	-36.41676712036106	969.2623291015625	1102.275390625	-28.97020339965796	939.656494140625	1097.522827148438	-106.717231750488	1083.615356445312	925.0541381835938	-42.16832733154276	1122.940551757812	864.8023681640625	-85.13378143310527	1060.841674804688	834.2203979492188	-42.70694351196271	1139.836547851562	780.4992065429688	-30.59129142761213	1012.835571289062	1441.374633789062	-486.7108764648434	971.5269775390625	1274.650512695313	-575.0878906249998	1027.085327148438	1189.474853515625	-581.5323486328123	903.473388671875	1201.661743164063	-591.819152832031	957.060791015625	1091.869873046875	-603.203430175781	901.3934326171875	1093.036010742188	-542.5783081054685	1043.74365234375	907.5370483398439	-592.531799316406	1073.911254882812	846.0522460937501	-542.2638549804685	1021.872863769531	826.8898925781251	-601.6002807617185	1089.531616210938	759.5458374023439	-583.7180175781249	1008.639831542969	1044.82275390625	-132.7107086181638	878.42138671875	1019.627624511719	-304.7905273437498	1005.812133789062	1044.426635742188	-475.8942565917966	935.2147216796875	902.2882080078125	-118.106864929199	906.873046875	632.0106201171875	-137.900421142578	964.7123413085938	634.8670043945312	-127.4775466918944	947.3861694335938	532.0499877929688	-156.3329010009764	888.1890869140625	555.2335815429688	-153.0131378173827	747.1522827148438	393.0675964355469	-148.9611206054687	772.15185546875	339.5683593750001	-159.9959106445312	710.5498657226562	281.5242919921876	-177.5430145263671	669.3023681640625	330.6637268066407	-169.0050201416015	509.8805541992188	228.0997924804688	-247.0095672607421	540.968994140625	55.81462097167973	-194.6375427246094	583.4133911132812	40.86745071411139	-290.6680297851562	988.7869262695312	936.8399047851564	-482.4909973144529	1175.054077148438	687.6701660156251	-447.9072265624998	1122.51025390625	685.3717651367189	-474.4815063476561	1140.899536132812	584.1411743164064	-442.8675231933593	1196.361572265625	610.9532470703126	-421.4637756347655	1214.043334960938	331.1868286132814	-418.4082946777343	1160.487548828125	305.2996215820314	-430.5592651367187	1162.2275390625	219.4295043945313	-412.2279968261718	1222.698852539062	231.283172607422	-393.8646240234374	1123.250732421875	39.59779357910164	-339.3566284179688	1301.056030273438	22.36950302124032	-404.4103088378906	1334.851684570312	27.41713523864753	-297.3004455566406	
